# xmcd
#
# Track frame offsets:
#	150
#	12112
#	22802
#	39401
#	53831
#	66145
#	79463
#	87884
#	101193
#	114875
#	130190
#	141977
#	156536
#	169938
#	185154
#	198169
#	209820
#	226283
#	235749
#	246514
#	258432
#	276490
#	293198
#
# Disc length: 4145 seconds
#
# Revision: 1
# Processed by: cddbd v1.5.2PL0 Copyright (c) Steve Scherf et al.
# Submitted via: audiograbber 1.83.01
#
DISCID=57102f17
DTITLE=Oscar Peterson - Anita O'Day - A Jazz Portrait of Frank Sinatra - Anita 
DTITLE=Sings The Most
DYEAR=1959
DGENRE=Jazz
TTITLE0=You Make Me Feel So Young
TTITLE1=Come Dance With Me
TTITLE2=Learnin' The Blues
TTITLE3=Witchcraft
TTITLE4=(Love Is The) Tender Trap
TTITLE5=Saturday Night (Is The Loneliest Night Of The Week)
TTITLE6=Just In Time
TTITLE7=It Happened In Monterey
TTITLE8=I Get A Kick Out Of You
TTITLE9=All Of Me
TTITLE10=The Birth Of The Blues
TTITLE11=How About You
TTITLE12=S'Wonderful - They Can't Take That Away From Me
TTITLE13=Tenderly
TTITLE14=Old Devil Moon
TTITLE15=Love Me Or Leave Me
TTITLE16=We'll Be Together Again
TTITLE17=Stella By Starlight
TTITLE18=Taking A Chance On Love
TTITLE19=Them There  Eyes
TTITLE20=I've Got The World On A String
TTITLE21=You Turned The Tables On Me
TTITLE22=Bewitched, Bothered And Bewildered
EXTD=
EXTT0=
EXTT1=
EXTT2=
EXTT3=
EXTT4=
EXTT5=
EXTT6=
EXTT7=
EXTT8=
EXTT9=
EXTT10=
EXTT11=
EXTT12=
EXTT13=
EXTT14=
EXTT15=
EXTT16=
EXTT17=
EXTT18=
EXTT19=
EXTT20=
EXTT21=
EXTT22=
PLAYORDER=
